<svg width="20" height="20" viewBox="0 0 20 20" fill="none" xmlns="http://www.w3.org/2000/svg">
<path d="M9.008 19.812C8.768 19.812 8.564 19.728 8.396 19.56C8.228 19.392 8.144 19.188 8.144 18.948V11.928H1.232C0.992 11.928 0.788 11.844 0.62 11.676C0.452 11.508 0.368 11.304 0.368 11.064V9.156C0.368 8.892 0.452 8.688 0.62 8.544C0.788 8.376 0.992 8.292 1.232 8.292H8.144V1.452C8.144 1.212 8.228 1.008 8.396 0.84C8.564 0.671999 8.768 0.587999 9.008 0.587999H11.096C11.36 0.587999 11.564 0.671999 11.708 0.84C11.876 1.008 11.96 1.212 11.96 1.452V8.292H18.872C19.112 8.292 19.316 8.376 19.484 8.544C19.652 8.688 19.736 8.892 19.736 9.156V11.064C19.736 11.304 19.652 11.508 19.484 11.676C19.316 11.844 19.112 11.928 18.872 11.928H11.96V18.948C11.96 19.188 11.876 19.392 11.708 19.56C11.564 19.728 11.36 19.812 11.096 19.812H9.008Z" fill="white"/>
</svg>
