<svg width="70" height="70" viewBox="0 0 70 70" fill="none" xmlns="http://www.w3.org/2000/svg">
<path d="M69.928 36.944C69.928 38.1387 69.8 38.8213 69.544 38.992C69.3733 39.1627 68.6907 39.248 67.496 39.248H39.848V66.896C39.848 68.0053 39.7627 68.6453 39.592 68.816C39.4213 68.9867 38.7813 69.072 37.672 69.072H32.68C31.5707 69.072 30.9307 68.9867 30.76 68.816C30.5893 68.6453 30.504 68.0053 30.504 66.896V39.248H2.984C1.78933 39.248 1.064 39.1627 0.808001 38.992C0.637334 38.8213 0.552001 38.1387 0.552001 36.944V32.336C0.552001 31.1413 0.637334 30.4587 0.808001 30.288C1.064 30.1173 1.78933 30.032 2.984 30.032H30.504V2.64C30.504 1.44533 30.5893 0.762665 30.76 0.591995C31.016 0.421331 31.7413 0.335999 32.936 0.335999H37.416C38.6107 0.335999 39.2933 0.421331 39.464 0.591995C39.72 0.762665 39.848 1.44533 39.848 2.64V30.032H67.496C68.6907 30.032 69.3733 30.1173 69.544 30.288C69.8 30.4587 69.928 31.1413 69.928 32.336V36.944Z" fill="#7D7D7D"/>
</svg>
